<svg xmlns="http://www.w3.org/2000/svg" xmlns:xlink="http://www.w3.org/1999/xlink" width="64" height="52" viewBox="0 0 64 52"><defs><path id="4taea" d="M349.674 2540.91a4.635 4.635 0 0 0-1.716 5.232c.228.688.125 1.378-.29 1.94-.694.95-2.022 1.276-3.096.507a4.72 4.72 0 0 0-2.776-.9c-.998 0-1.951.306-2.758.885-1.086.789-2.416.461-3.117-.499-.411-.56-.513-1.25-.286-1.94a4.634 4.634 0 0 0-1.712-5.224c-.813-.585-1.112-1.499-.798-2.447.304-.94 1.086-1.506 2.09-1.506 2.05 0 3.851-1.296 4.482-3.224.315-.955 1.1-1.522 2.1-1.522 1.003 0 1.786.566 2.094 1.513a4.705 4.705 0 0 0 4.479 3.233c1.008 0 1.795.566 2.104 1.514.308.942.01 1.853-.8 2.438zm-2.082-1.514a7.194 7.194 0 0 1-5.795-4.18 7.184 7.184 0 0 1-5.795 4.18 7.088 7.088 0 0 1 2.212 6.758 7.196 7.196 0 0 1 3.582-.945c1.267 0 2.492.326 3.582.947a7.088 7.088 0 0 1 2.214-6.76zm41.588 5.406c.64 2.146.26 4.39-1.055 6.19-2.277 3.111-6.626 3.971-9.923 1.723-3.313 2.254-7.655 1.374-9.921-1.726-1.315-1.796-1.695-4.04-1.056-6.187-1.276-.973-2.147-2.271-2.555-3.706-.987-1.13-2.702-1.803-4.628-1.803-1.993 0-3.76.718-4.73 1.919l-.022.025c-.424 1.38-1.28 2.625-2.517 3.565.64 2.146.26 4.39-1.054 6.189-2.268 3.103-6.618 3.977-9.924 1.724-3.312 2.255-7.655 1.374-9.92-1.726-1.316-1.796-1.696-4.04-1.056-6.187-2.45-1.869-3.412-4.93-2.453-7.864a7.144 7.144 0 0 1 2.119-3.206l4.627-27.264c.375-2.549 2.612-4.469 5.21-4.469 2.935 0 5.266 2.364 5.266 5.224v.976c0 .684-.56 1.24-1.25 1.24s-1.25-.556-1.25-1.24v-.976c0-1.5-1.222-2.744-2.766-2.744-1.368 0-2.545 1.013-2.738 2.356l-.005.031-4.31 25.387a7.377 7.377 0 0 1 1.743-.252c1.032-2.891 3.673-4.748 6.785-4.748 3.113 0 5.753 1.856 6.784 4.748 3.09.084 5.686 2.003 6.647 4.938.108.328.19.658.25.988 1.306-.715 2.888-1.114 4.563-1.114 1.644 0 3.197.385 4.49 1.074.059-.316.139-.633.242-.949.96-2.937 3.556-4.857 6.646-4.937 1.031-2.891 3.672-4.748 6.784-4.748 3.113 0 5.754 1.856 6.784 4.748a7.42 7.42 0 0 1 1.649.23l-4.15-25.361a1.999 1.999 0 0 1-.004-.03c-.187-1.346-1.36-2.361-2.731-2.361a2.745 2.745 0 0 0-2.756 2.734v.986c0 .684-.56 1.24-1.25 1.24s-1.25-.556-1.25-1.24v-.986c0-2.88 2.352-5.214 5.256-5.214 2.607 0 4.842 1.928 5.205 4.488l4.442 27.144a7.125 7.125 0 0 1 2.237 3.308c.958 2.935-.006 5.997-2.455 7.863zm-36.329-7.098c-.641-1.96-2.4-3.226-4.481-3.226-.956 0-1.8-.608-2.099-1.513-.64-1.967-2.396-3.232-4.474-3.232-2.078 0-3.834 1.269-4.475 3.233a2.207 2.207 0 0 1-2.106 1.512c-2.11 0-3.836 1.281-4.472 3.225-.64 1.96.032 4.008 1.713 5.218a2.17 2.17 0 0 1 .802 2.448c-.475 1.444-.242 2.96.638 4.163 1.483 2.03 4.37 2.666 6.604 1.054a2.213 2.213 0 0 1 2.595.004c2.22 1.604 5.11.982 6.599-1.055.88-1.205 1.113-2.722.639-4.165a2.171 2.171 0 0 1 .801-2.449c1.683-1.209 2.356-3.257 1.716-5.217zm36.407 0c-.652-1.99-2.408-3.226-4.482-3.226-.956 0-1.8-.609-2.099-1.513-.64-1.967-2.396-3.232-4.473-3.232-2.078 0-3.835 1.269-4.475 3.233a2.208 2.208 0 0 1-2.107 1.512c-2.075 0-3.83 1.266-4.471 3.225-.641 1.96.031 4.008 1.712 5.218a2.17 2.17 0 0 1 .802 2.448c-.475 1.444-.242 2.96.639 4.163 1.483 2.03 4.37 2.666 6.603 1.054a2.213 2.213 0 0 1 2.595.004c2.218 1.601 5.106.986 6.6-1.055.88-1.205 1.113-2.722.638-4.165a2.172 2.172 0 0 1 .802-2.449c1.682-1.21 2.356-3.257 1.716-5.217zm-3.178 3.206a4.635 4.635 0 0 0-1.715 5.232c.227.688.125 1.377-.29 1.94-.697.955-2.022 1.272-3.095.51a4.717 4.717 0 0 0-2.777-.903 4.7 4.7 0 0 0-2.758.886c-1.084.787-2.419.463-3.12-.503-.409-.557-.51-1.248-.283-1.937a4.633 4.633 0 0 0-1.712-5.224c-.814-.585-1.112-1.499-.799-2.447.304-.94 1.087-1.506 2.091-1.506 2.05 0 3.851-1.296 4.482-3.224.312-.953 1.097-1.522 2.1-1.522 1.003 0 1.785.566 2.094 1.512a4.705 4.705 0 0 0 4.478 3.234c1.009 0 1.795.566 2.105 1.514.308.942.009 1.853-.8 2.438zm-2.082-1.514a7.195 7.195 0 0 1-5.795-4.18 7.182 7.182 0 0 1-5.795 4.18 7.09 7.09 0 0 1 2.213 6.758 7.196 7.196 0 0 1 3.581-.945c1.269 0 2.493.326 3.583.947a7.087 7.087 0 0 1 2.213-6.76z"/></defs><g><g transform="translate(-328 -2502)"><use fill="#fff" xlink:href="#4taea"/></g></g></svg>