<svg xmlns="http://www.w3.org/2000/svg" xmlns:xlink="http://www.w3.org/1999/xlink" width="49" height="57" viewBox="0 0 49 57"><defs><path id="z7saa" d="M1155.654 2557.89a2.034 2.034 0 0 1-1.31 0c-23.932-8.135-23.556-27.413-23.282-41.49.03-1.513.057-2.942.057-4.325 0-1.083.895-1.961 2-1.961 8.55 0 15.06-2.41 20.486-7.585a2.027 2.027 0 0 1 2.788 0c5.427 5.174 11.938 7.585 20.489 7.585 1.104 0 2 .878 2 1.961 0 1.382.027 2.81.057 4.324.274 14.077.648 33.356-23.285 41.492zm19.286-41.417c-.016-.848-.032-1.671-.043-2.478-8.01-.33-14.415-2.711-19.898-7.395-5.482 4.684-11.886 7.064-19.895 7.395-.011.807-.027 1.63-.044 2.479-.275 14.15-.585 30.17 19.94 37.483 20.526-7.313 20.215-23.333 19.94-37.484zm-10.228 6.701c.781.765.781 2.008 0 2.773l-11.064 10.852c-.39.382-.902.573-1.414.573a2.015 2.015 0 0 1-1.414-.573l-5.532-5.427a1.934 1.934 0 0 1 0-2.772 2.028 2.028 0 0 1 2.828 0l4.118 4.039 9.65-9.466a2.028 2.028 0 0 1 2.828.001z"/></defs><g><g transform="translate(-1131 -2502)"><use fill="#fff" xlink:href="#z7saa"/><use fill="#fff" fill-opacity="0" stroke="#fab505" stroke-linecap="round" stroke-linejoin="round" stroke-miterlimit="50" xlink:href="#z7saa"/></g></g></svg>