<svg xmlns="http://www.w3.org/2000/svg" xmlns:xlink="http://www.w3.org/1999/xlink" width="53" height="35" viewBox="0 0 53 35"><defs><path id="w1f1a" d="M755.374 2877.826a.151.151 0 0 1-.037.065l-.755.939.08 1.228a.153.153 0 0 1-.015.075.147.147 0 0 1-.198.073l-1.095-.45-1.106.455a.147.147 0 0 1-.192-.087.162.162 0 0 1 0-.066l.08-1.228-.76-.945a.157.157 0 0 1 0-.213.143.143 0 0 1 .058-.033l1.154-.302.611-1.037.002-.002a.146.146 0 0 1 .206-.047c.02.012.036.03.048.05l.638 1.036 1.175.302c.079.022.126.105.106.187zm-6.646-6.045a.158.158 0 0 1-.037.066l-.755.938.08 1.228a.152.152 0 0 1-.139.165.14.14 0 0 1-.074 0l-1.111-.444-1.106.455a.148.148 0 0 1-.064.01.152.152 0 0 1-.139-.163l.08-1.23-.765-.943a.156.156 0 0 1-.03-.061.154.154 0 0 1 .11-.186l1.153-.301.638-1.037a.152.152 0 0 1 .044-.045.146.146 0 0 1 .206.045l.638 1.037 1.164.28c.08.02.127.105.107.186zm6.625.006a.153.153 0 0 1-.037.065l-.755.938.08 1.229a.152.152 0 0 1-.139.164.14.14 0 0 1-.074 0l-1.095-.45-1.106.456a.148.148 0 0 1-.192-.088.162.162 0 0 1 0-.065l.08-1.23-.76-.943a.156.156 0 0 1-.03-.061.154.154 0 0 1 .11-.186l1.153-.301.611-1.037.002-.003a.147.147 0 0 1 .206-.047c.02.013.036.03.048.05l.638 1.037 1.153.285c.08.022.127.105.107.187zm30.647-4.86v33.151c0 .51-.4.922-.893.922h-51.214c-.493 0-.893-.413-.893-.922v-33.157c0-.509.4-.921.893-.921h51.22c.493.003.89.418.887.927zm-51.213 15.654h23.82v-14.733h-23.82zm49.448 12.923h-49.448v3.653h49.448zm0-5.54h-49.448v3.707h49.448zm0-5.54h-49.448v3.708h49.448zm-23.842-1.832h23.842l-.027-3.708h-23.815zm23.842-5.54l-.027-3.703h-23.815v3.703zm0-5.54l-.027-3.664h-23.815v3.665zm-42.154 6.319a.158.158 0 0 1-.037.066l-.755.938.08 1.228a.158.158 0 0 1-.014.076.147.147 0 0 1-.199.072l-1.084-.455-1.106.455a.141.141 0 0 1-.064.01.152.152 0 0 1-.138-.163l.08-1.228-.76-.945a.157.157 0 0 1 0-.213.145.145 0 0 1 .058-.033l1.153-.302.638-1.037.002-.002a.146.146 0 0 1 .206-.047c.02.012.036.03.048.05l.632 1.036 1.154.307c.08.022.127.105.107.187zm0-6.05a.158.158 0 0 1-.037.066l-.755.938.08 1.228a.152.152 0 0 1-.138.165.14.14 0 0 1-.075 0l-1.084-.444-1.106.455a.148.148 0 0 1-.064.01.152.152 0 0 1-.138-.163l.058-1.23-.76-.943a.157.157 0 0 1 .08-.247l1.153-.301.644-1.037a.152.152 0 0 1 .044-.045.146.146 0 0 1 .206.045l.632 1.037 1.154.28c.08.02.127.105.107.186zm6.647 6.05a.158.158 0 0 1-.037.066l-.755.938.08 1.228a.158.158 0 0 1-.015.076.147.147 0 0 1-.198.072l-1.101-.455-1.106.455a.141.141 0 0 1-.063.01.152.152 0 0 1-.139-.163l.08-1.228-.76-.945a.157.157 0 0 1 0-.213.145.145 0 0 1 .058-.033l1.154-.302.638-1.037.002-.002a.146.146 0 0 1 .205-.047c.02.012.036.03.048.05l.638 1.036 1.164.307c.08.022.127.105.107.187z"/></defs><g><g transform="translate(-733 -2866)"><use fill="#fff" xlink:href="#w1f1a"/></g></g></svg>