<svg xmlns="http://www.w3.org/2000/svg" xmlns:xlink="http://www.w3.org/1999/xlink" width="55" height="47" viewBox="0 0 55 47"><defs><path id="brqta" d="M1573.464 2890.3l-18.943 19.04a5.615 5.615 0 0 1-3.994 1.659 5.614 5.614 0 0 1-3.994-1.66l-19.065-19.164a15.272 15.272 0 0 1-4.468-10.842c0-4.096 1.587-7.946 4.468-10.842a15.116 15.116 0 0 1 10.787-4.492c4.073 0 7.903 1.596 10.785 4.492l1.489 1.496 1.487-1.496a15.118 15.118 0 0 1 10.787-4.492c4.139 0 8.012 1.64 10.909 4.618 5.813 5.975 5.702 15.702-.248 21.683zm-1.772-19.7a12.308 12.308 0 0 0-8.89-3.762c-3.32 0-6.44 1.3-8.789 3.66l-5.764 5.798a1.404 1.404 0 0 1-1.997.001 1.425 1.425 0 0 1 0-2.007l2.28-2.294-1.49-1.497a12.315 12.315 0 0 0-8.787-3.661c-3.32 0-6.442 1.3-8.79 3.66a12.441 12.441 0 0 0-3.64 8.834c0 3.338 1.292 6.476 3.64 8.835l19.065 19.164a2.817 2.817 0 0 0 3.994 0l18.943-19.039c4.86-4.886 4.962-12.821.225-17.692zm.075 9.593l-.088.002c-.74 0-1.362-.579-1.408-1.332a7.527 7.527 0 0 0-5.449-6.782 1.42 1.42 0 0 1-.982-1.747 1.411 1.411 0 0 1 1.739-.988 10.304 10.304 0 0 1 4.514 2.658 10.375 10.375 0 0 1 2.997 6.684 1.417 1.417 0 0 1-1.323 1.505z"/></defs><g><g transform="translate(-1523 -2864)"><use fill="#fff" xlink:href="#brqta"/></g></g></svg>