<svg xmlns="http://www.w3.org/2000/svg" xmlns:xlink="http://www.w3.org/1999/xlink" width="35" height="35" viewBox="0 0 35 35"><defs><path id="3e4za" d="M1325 635.5c0 9.649-7.85 17.5-17.5 17.5s-17.5-7.851-17.5-17.5c0-9.65 7.85-17.5 17.5-17.5s17.5 7.85 17.5 17.5zm-3 0c0-7.995-6.505-14.5-14.5-14.5s-14.5 6.505-14.5 14.5c0 7.994 6.505 14.5 14.5 14.5s14.5-6.506 14.5-14.5zm-7.729-4.65l-4.65 4.651 4.65 4.65a1.499 1.499 0 1 1-2.12 2.122l-4.651-4.651-4.65 4.65a1.494 1.494 0 0 1-2.122 0 1.499 1.499 0 0 1 0-2.12l4.65-4.651-4.65-4.651a1.499 1.499 0 1 1 2.122-2.121l4.65 4.65 4.65-4.65a1.499 1.499 0 1 1 2.121 2.12z"/></defs><g><g transform="translate(-1290 -618)"><use fill="#e4eeee" xlink:href="#3e4za"/></g></g></svg>