<svg xmlns="http://www.w3.org/2000/svg" xmlns:xlink="http://www.w3.org/1999/xlink" width="61" height="47" viewBox="0 0 61 47"><defs><path id="nth3a" d="M1181.962 2895.866c-1.959 2.961-4.738 5.418-8.26 7.302-3.098 1.657-6.757 2.834-10.582 3.401-1.934.288-3.871.43-5.792.43-7.67 0-15.073-2.257-20.933-6.482-7.887-5.688-12.634-14.875-12.387-23.974.14-5.126 1.87-9.637 4.869-12.706 3.31-3.386 8.516-4.676 13.265-3.287 3.665 1.074 5.113 3.266 6.39 5.2 1.05 1.587 1.955 2.958 4.014 3.788 1.404.566 4.091-.148 6.935-.905 5.753-1.531 13.63-3.627 19.704 2.44 3.123 3.122 5.138 7.367 5.674 11.954.542 4.637-.487 9.197-2.897 12.84zm-4.512-23.101c-5.075-5.07-11.588-3.337-17.334-1.808-3.394.903-6.326 1.683-8.493.809-2.763-1.114-4.023-3.02-5.134-4.701-1.2-1.817-2.236-3.385-5.041-4.207a11.321 11.321 0 0 0-3.176-.453c-2.88 0-5.677 1.095-7.64 3.104-2.576 2.634-4.062 6.575-4.186 11.098-.225 8.321 4.138 16.738 11.388 21.966 6.812 4.912 15.896 6.96 24.923 5.617 7.602-1.13 13.858-4.644 17.164-9.64 4.314-6.521 3.228-16.09-2.471-21.785zm-7.25.244c0 .664-.546 1.204-1.22 1.204-2.359 0-5.021.708-7.596 1.393a1.217 1.217 0 0 1-1.495-.85 1.202 1.202 0 0 1 .86-1.475c2.729-.725 5.55-1.476 8.232-1.476.673 0 1.219.54 1.219 1.204zm-28.164-.267c0 2.805-2.312 5.087-5.153 5.087-2.842 0-5.154-2.282-5.154-5.087 0-2.805 2.312-5.087 5.154-5.087 2.841 0 5.153 2.282 5.153 5.087zm-2.439 0c0-1.478-1.217-2.68-2.714-2.68-1.497 0-2.715 1.202-2.715 2.68 0 1.477 1.218 2.68 2.715 2.68 1.497 0 2.714-1.203 2.714-2.68zm5.072 13.798c0 2.804-2.312 5.086-5.153 5.086-2.842 0-5.154-2.282-5.154-5.086 0-2.805 2.312-5.086 5.154-5.086 2.841 0 5.153 2.281 5.153 5.086zm-2.439 0c0-1.477-1.218-2.679-2.714-2.679-1.497 0-2.715 1.202-2.715 2.679 0 1.478 1.218 2.68 2.715 2.68 1.496 0 2.714-1.202 2.714-2.68zm14.343 8.956c0 2.804-2.311 5.086-5.153 5.086-2.842 0-5.154-2.282-5.154-5.086 0-2.804 2.312-5.086 5.154-5.086 2.841 0 5.153 2.282 5.153 5.086zm-2.439 0c0-1.478-1.217-2.68-2.714-2.68-1.497 0-2.715 1.202-2.715 2.68 0 1.477 1.218 2.679 2.715 2.679 1.497 0 2.714-1.202 2.714-2.679zm16.986-.347c0 2.804-2.312 5.085-5.153 5.085-2.842 0-5.154-2.28-5.154-5.085s2.312-5.087 5.154-5.087c2.841 0 5.153 2.281 5.153 5.087zm-2.439 0c0-1.478-1.217-2.68-2.714-2.68-1.497 0-2.715 1.202-2.715 2.68 0 1.476 1.218 2.679 2.715 2.679 1.497 0 2.714-1.203 2.714-2.68zm10.575-11.265c0 2.806-2.312 5.086-5.153 5.086-2.842 0-5.154-2.28-5.154-5.086 0-2.804 2.312-5.086 5.154-5.086 2.841 0 5.153 2.282 5.153 5.086zm-2.439 0c0-1.476-1.217-2.678-2.714-2.678-1.497 0-2.715 1.202-2.715 2.678 0 1.478 1.218 2.68 2.715 2.68 1.497 0 2.714-1.202 2.714-2.68zm-19.344-7.44c-1.572 0-1.57-2.407 0-2.407 1.572 0 1.57 2.407 0 2.407z"/></defs><g><g transform="translate(-1124 -2860)"><use fill="#fff" xlink:href="#nth3a"/></g></g></svg>