<svg xmlns="http://www.w3.org/2000/svg" xmlns:xlink="http://www.w3.org/1999/xlink" width="53" height="53" viewBox="0 0 53 53"><defs><path id="mlcba" d="M1559.11 2538.89a10.644 10.644 0 0 1-7.11 2.72c-2.626 0-5.151-.965-7.11-2.72a1.523 1.523 0 1 1 2.033-2.27 7.598 7.598 0 0 0 10.154 0 1.524 1.524 0 0 1 2.033 2.27zm18.89 13.586c0 .841-.682 1.524-1.524 1.524h-48.953a1.524 1.524 0 0 1-1.523-1.524c0-5.83 4.71-10.865 10.664-10.865h2.419a16.679 16.679 0 0 1-3.77-9.138h-.07a6.1 6.1 0 0 1-6.095-6.094 6.1 6.1 0 0 1 6.094-6.092h.07c.19-2.103.77-4.094 1.668-5.902-.136.004-.274.006-.414.006-1.848 0-4.035-.384-5.538-1.887-2.908-2.907-1.633-8.375-1.478-8.989a1.523 1.523 0 0 1 1.105-1.104c.614-.155 6.083-1.43 8.99 1.476 1.324 1.324 1.78 3.177 1.87 4.863a16.679 16.679 0 0 1 10.485-3.695c4.048 0 7.766 1.443 10.666 3.84.071-1.722.515-3.646 1.877-5.008 2.907-2.906 8.377-1.631 8.99-1.476.544.137.968.561 1.105 1.104.155.614 1.43 6.082-1.477 8.99-1.503 1.502-3.69 1.886-5.538 1.886-.207 0-.41-.005-.607-.013.9 1.81 1.481 3.803 1.672 5.908h.07a6.1 6.1 0 0 1 6.094 6.093 6.1 6.1 0 0 1-6.094 6.093h-.07a16.678 16.678 0 0 1-3.77 9.139h2.418c5.948 0 10.664 5.029 10.664 10.865zm-9.242-23.05a3.05 3.05 0 0 0 3.047-3.047 3.05 3.05 0 0 0-3.047-3.046zm-33.516-6.093a3.05 3.05 0 0 0-3.047 3.046 3.05 3.05 0 0 0 3.047 3.047zm30.6-12.132c1.526.219 4.018.295 5.164-.852 1.154-1.153 1.077-3.636.855-5.159-1.525-.218-4.017-.294-5.163.852-1.154 1.153-1.077 3.636-.855 5.159zm-12.319-3.014v1.438c0 5.879 4.784 10.661 10.664 10.661h1.439c-.705-6.344-5.757-11.395-12.103-12.1zm-15.149 12.1h1.438c5.88 0 10.664-4.783 10.664-10.662v-1.438c-6.345.704-11.397 5.755-12.102 12.1zm-.031-9.086c.218-1.525.293-4.014-.852-5.159-1.145-1.144-3.633-1.07-5.161-.852-.218 1.526-.293 4.015.852 5.16 1.145 1.145 3.633 1.07 5.16.851zm13.657 33.456c7.56 0 13.71-6.149 13.71-13.708v-7.616h-1.523c-5.299 0-9.906-3.022-12.187-7.432-2.282 4.41-6.888 7.432-12.188 7.432h-1.523v7.616c0 7.56 6.15 13.708 13.71 13.708zm22.801 6.296c-.713-3.539-3.842-6.296-7.465-6.296h-5.712a16.666 16.666 0 0 1-9.624 3.046 16.666 16.666 0 0 1-9.624-3.046h-5.712c-3.623 0-6.753 2.757-7.465 6.296zm-28.895-24.574a1.523 1.523 0 1 1 0 3.047 1.523 1.523 0 0 1 0-3.047zm12.188 0a1.523 1.523 0 1 1 0 3.047 1.523 1.523 0 0 1 0-3.047z"/></defs><g><g transform="translate(-1526 -2502)"><use fill="#fff" xlink:href="#mlcba"/><use fill="#fff" fill-opacity="0" stroke="#84c2c6" stroke-linecap="round" stroke-linejoin="round" stroke-miterlimit="50" xlink:href="#mlcba"/></g></g></svg>