<svg xmlns="http://www.w3.org/2000/svg" xmlns:xlink="http://www.w3.org/1999/xlink" width="43" height="59" viewBox="0 0 43 59"><defs><path id="bwk5a" d="M381.992 2892.566a24.281 24.281 0 0 1-1.191 7.875c-1.624 4.995-5.078 9.053-9.727 11.427a19.282 19.282 0 0 1-8.789 2.131c-.257 0-.515-.02-.772-.03-.336.014-.674.025-1.014.025-11.855 0-21.5-9.73-21.5-21.69 0-19.997 19.605-35.8 20.44-36.462l1.06-.843 1.061.843c.835.663 20.439 16.465 20.439 36.462 0 .087-.006.174-.007.262zm-35.706 10.972a16.102 16.102 0 0 1-.283-10.831c1.09-3.354 3.41-6.08 6.533-7.674a12.909 12.909 0 0 1 9.998-.767c2.747.91 4.979 2.843 6.285 5.445a10.935 10.935 0 0 1 .628 8.334 9 9 0 0 1-4.489 5.274 8.869 8.869 0 0 1-6.87.527c-3.953-1.307-6.116-5.616-4.82-9.605a1.714 1.714 0 0 1 2.165-1.105c.9.298 1.39 1.276 1.095 2.184-.706 2.174.473 4.524 2.628 5.237a5.49 5.49 0 0 0 4.252-.326 5.57 5.57 0 0 0 2.778-3.264 7.468 7.468 0 0 0-.428-5.692 7.364 7.364 0 0 0-4.294-3.72 9.537 9.537 0 0 0-7.38.567 9.671 9.671 0 0 0-4.821 5.664 12.643 12.643 0 0 0 .726 9.638 12.463 12.463 0 0 0 7.268 6.296c1.37.454 2.774.712 4.177.788 9.45-.488 17-8.337 17.127-17.96-.001-.066.001-.132-.001-.197 0-.03.006-.057.006-.086-.023-15.745-14.049-29.253-18.067-32.798-4.021 3.548-18.068 17.075-18.068 32.837 0 4.235 1.444 8.136 3.855 11.234z"/></defs><g><g transform="translate(-339 -2855)"><use fill="#fff" xlink:href="#bwk5a"/></g></g></svg>