<svg xmlns="http://www.w3.org/2000/svg" xmlns:xlink="http://www.w3.org/1999/xlink" width="65" height="49" viewBox="0 0 65 49"><defs><path id="8fvla" d="M771.471 2556a8.574 8.574 0 0 1-4.243-1.115c-3.658-2.043-5.97-6.654-7.582-11.404-3.124 6.037-9.055 14.666-16.459 11.963-1.744-.635-4.626-2.59-4.306-8.513.126-2.322.744-4.912 1.7-7.272-4.504-3.603-12.327-11.038-13.44-18.416-.503-3.352.357-6.341 2.56-8.884 2.367-2.85 5.585-3.93 9.282-3.087 7.234 1.647 15.493 10.997 19.637 18.26 3.928-5.63 13.13-15.48 21.189-17.202 3.618-.774 6.758.15 9.067 2.678 1.388 1.521 2.82 4.28 1.75 8.795-1.522 6.412-7.47 13.894-11.673 17.93.904 2.489 1.376 5.206 1.26 7.5-.21 4.225-2.182 7.153-5.546 8.236-1.098.354-2.164.531-3.196.531zm-10.757-24.042c.14.403.26.788.35 1.143l.326 1.313c1.34 5.415 3.584 14.484 7.844 16.86 1.223.688 2.59.77 4.171.26 1.664-.534 2.568-2.05 2.692-4.512.076-1.52-.152-3.098-.56-4.56-.106.055-.204.1-.292.13-2.376.9-6.277.075-7.95-2.377-.63-.927-1.791-3.412 1.02-6.551 1.486-1.531 3.354-1.919 5.174-1.122 1.328.58 2.528 1.761 3.536 3.278 3.572-3.728 8.756-10.284 9.714-15.563.356-1.955.062-3.415-.9-4.468-1.324-1.445-2.962-1.898-5.172-1.429-8.2 1.764-18.955 15.138-19.953 17.598zm-16.665 10.169a19.39 19.39 0 0 0-.948 3.886c-.15 1.121-.486 4.827 1.494 5.55 5.442 1.982 11.315-9.235 13.301-14.121-.178-.706-.346-1.38-.506-2.031l-.324-1.298c-1.408-5.608-11.303-19.06-18.999-20.814-2.171-.497-3.833.057-5.227 1.737-1.422 1.642-1.944 3.46-1.624 5.592.862 5.716 7.301 11.97 11.311 15.286 1.294-1.942 2.836-3.367 4.464-3.77.916-.224 3.222-.445 4.918 2.402.028.044.051.097.078.145 1.587 3.23.56 5.73-.932 6.992-1.844 1.565-4.666 1.712-7.006.444zm1.78-3.737c.976.613 2.07.559 2.57.136.534-.45.158-1.451-.07-1.935-.196-.314-.348-.438-.392-.459-.424.048-1.248.885-2.108 2.258zm25.82-2.115c-.084 0-.168.056-.326.218-.104.119-.88 1.019-.623 1.393.477.707 2.327 1.128 3.09.845.041-.027.095-.05.15-.088-.697-1.184-1.455-2.029-2.099-2.31-.076-.033-.134-.058-.192-.058z"/></defs><g><g transform="translate(-726 -2508)"><use fill="#fff" xlink:href="#8fvla"/><use fill="#fff" fill-opacity="0" stroke="#9b25d2" stroke-linecap="round" stroke-linejoin="round" stroke-miterlimit="50" xlink:href="#8fvla"/></g></g></svg>